Coordinates
version=1
nRows=17
nColumns=24
inDegrees=yes

Units are S.I. units (second, meters, Newtons, ...)
Angles are in degrees.

endheader
time	pelvis_tilt	pelvis_list	pelvis_rotation	pelvis_tx	pelvis_ty	pelvis_tz	hip_flexion_r	hip_adduction_r	hip_rotation_r	knee_angle_r	ankle_angle_r	subtalar_angle_r	mtp_angle_r	hip_flexion_l	hip_adduction_l	hip_rotation_l	knee_angle_l	ankle_angle_l	subtalar_angle_l	mtp_angle_l	lumbar_extension	lumbar_bending	lumbar_rotation
      3.79000000	     -5.06730036	     -7.21975023	     -0.96444438	     -0.72363546	     -0.01496816	     -0.18996946	     10.55720762	     15.99833101	     10.92960276	    -16.41355056	     -0.21084713	     -4.69751765	      8.23287015	     32.15198946	     -9.46160053	     -6.35281433	    -68.26534362	     -7.32229589	     -9.33857369	    -14.66769811	      5.28793555	      7.25927552	      0.38758472
      3.79500000	     -4.93868173	     -7.09319894	     -1.04963085	     -0.71766866	     -0.01429854	     -0.18942483	      9.56466685	     15.88332635	     11.44506088	    -15.80797924	     -0.12748582	     -4.87722137	      7.97868284	     32.72934822	     -9.19052560	     -6.46580028	    -67.42487229	     -6.82322846	     -9.01642879	    -13.74716505	      5.11765395	      7.13707032	      0.55215120
      3.80000000	     -4.91672657	     -6.91901458	     -1.17631743	     -0.71170486	     -0.01374807	     -0.18882713	      8.74665298	     15.70626846	     11.74141056	    -15.27163391	     -0.01716967	     -4.87337990	      7.92971568	     33.37553156	     -8.89956977	     -6.64510576	    -66.50330000	     -6.22259770	     -8.52618552	    -13.15563995	      5.06778684	      6.96393362	      0.76901262
      3.80500000	     -4.85548860	     -6.76520713	     -1.27968981	     -0.70576376	     -0.01326947	     -0.18825234	      7.88582439	     15.54570571	     12.08449054	    -14.72940994	      0.06959627	     -4.93964173	      7.88619084	     33.95971655	     -8.62593033	     -6.81801711	    -65.51717388	     -5.63612925	     -8.01506907	    -12.51924346	      4.96902008	      6.81285000	      0.96277589
      3.81000000	     -4.82331983	     -6.61243023	     -1.38734374	     -0.69983719	     -0.01289868	     -0.18768404	      7.08230728	     15.38295199	     12.38440107	    -14.22151800	      0.16014591	     -5.00135944	      7.88429635	     34.54359689	     -8.35785682	     -7.00260162	    -64.45722413	     -5.04681253	     -7.46875559	    -11.93193621	      4.90219789	      6.66336162	      1.14232025
      3.81500000	     -4.79548892	     -6.46787732	     -1.48211329	     -0.69393898	     -0.01262040	     -0.18714936	      6.30198815	     15.22390950	     12.65952358	    -13.73341547	      0.24669100	     -5.07274325	      7.90776287	     35.10926912	     -8.10102404	     -7.19790281	    -63.33330707	     -4.46071979	     -6.87213605	    -11.37183636	      4.84037350	      6.52910740	      1.32220832
      3.82000000	     -4.78419556	     -6.32384163	     -1.57155735	     -0.68805976	     -0.01244089	     -0.18662203	      5.56047380	     15.06495549	     12.90504688	    -13.27254027	      0.34017395	     -5.15374712	      7.94966388	     35.66384654	     -7.84566286	     -7.39592199	    -62.14367111	     -3.87391192	     -6.22817665	    -10.86262438	      4.79154992	      6.39000928	      1.48964076
      3.82500000	     -4.77418042	     -6.18847597	     -1.65256757	     -0.68218729	     -0.01233339	     -0.18613864	      4.83773746	     14.91357974	     13.12878392	    -12.83534369	      0.42243406	     -5.25903525	      7.99845150	     36.18645800	     -7.59836789	     -7.59927253	    -60.88400423	     -3.29800407	     -5.53768747	    -10.38289110	      4.74650754	      6.27249766	      1.66587435
      3.83000000	     -4.79092387	     -6.05685134	     -1.71736118	     -0.67635633	     -0.01235211	     -0.18570101	      4.17441782	     14.76694532	     13.30604581	    -12.43994261	      0.53260402	     -5.37091625	      8.04922972	     36.71449838	     -7.35046954	     -7.81579757	    -59.56613755	     -2.70689842	     -4.83816414	     -9.98911530	      4.72229139	      6.15557328	      1.81281985
      3.83500000	     -4.81152652	     -5.92910506	     -1.77958404	     -0.67052814	     -0.01243570	     -0.18529558	      3.53647522	     14.62666930	     13.46444346	    -12.08172899	      0.64350172	     -5.49454388	      8.09482163	     37.20689862	     -7.10743050	     -8.03604318	    -58.17920409	     -2.12049200	     -4.08137751	     -9.65518058	      4.70040904	      6.05205575	      1.96029831
      3.84000000	     -4.83281256	     -5.81272588	     -1.84109139	     -0.66471948	     -0.01258986	     -0.18491643	      2.91672542	     14.50094901	     13.60166585	    -11.74893470	      0.75700403	     -5.63673373	      8.13252947	     37.66460614	     -6.88009528	     -8.26600776	    -56.72979753	     -1.54797817	     -3.28972236	     -9.38362652	      4.68214944	      5.96212644	      2.11545351
      3.84500000	     -4.87014512	     -5.69807201	     -1.89550518	     -0.65894358	     -0.01283084	     -0.18457835	      2.34301308	     14.38087540	     13.71393048	    -11.46281940	      0.88712347	     -5.78620708	      8.16392224	     38.10412532	     -6.65205660	     -8.50784790	    -55.21629325	     -0.98765566	     -2.48597674	     -9.18806289	      4.67006311	      5.87814234	      2.25579991
      3.85000000	     -4.91258207	     -5.58766359	     -1.94866324	     -0.65319502	     -0.01314085	     -0.18427286	      1.79816532	     14.26791444	     13.81091970	    -11.21491094	      1.03071495	     -5.93825054	      8.18961142	     38.51039451	     -6.43433655	     -8.77223541	    -53.64175462	     -0.44152072	     -1.65191880	     -9.06614862	      4.65710171	      5.80270350	      2.40060621
      3.85500000	     -4.96004264	     -5.48582922	     -2.00536654	     -0.64747127	     -0.01351484	     -0.18398777	      1.28538085	     14.16895156	     13.89130404	    -11.01607641	      1.19059977	     -6.08759658	      8.21104530	     38.88197221	     -6.23185115	     -9.05725863	    -52.00770588	      0.07544760	     -0.80984999	     -9.02818384	      4.64599159	      5.73859676	      2.54747455
      3.86000000	     -4.99438777	     -5.38088873	     -2.07377634	     -0.64178658	     -0.01392378	     -0.18372408	      0.78457225	     14.07021500	     13.95930133	    -10.86250115	      1.35520879	     -6.24772829	      8.21902005	     39.19493890	     -6.03789659	     -9.38033893	    -50.31660889	      0.58205951	      0.05215268	     -9.12698502	      4.60222432	      5.67727021	      2.72909074
      3.86500000	     -5.11426384	     -5.29278145	     -2.11119758	     -0.63613006	     -0.01450541	     -0.18352974	      0.41301215	     13.99286417	     13.98811768	    -10.76929645	      1.58591507	     -6.35204162	      8.25871522	     39.58197220	     -5.83834283	     -9.68466709	    -48.57925755	      0.97766641	      0.85828756	     -9.16423391	      4.65053537	      5.62757901	      2.77560081
      3.87000000	     -5.14324214	     -5.22306343	     -2.21904352	     -0.63043878	     -0.01501133	     -0.18327800	     -0.07149887	     13.92725729	     14.07748007	    -10.66988676	      1.80055111	     -6.38372972	      8.29135159	     39.80745545	     -5.73150026	    -10.11459903	    -46.81063584	      1.43519738	      1.78852224	     -9.31153277	      4.60158660	      5.62117652	      3.00675734
